<?xml version="1.0" encoding="UTF-8" ?>
<!DOCTYPE svg PUBLIC "-//W3C//DTD SVG 1.1//EN" "http://www.w3.org/Graphics/SVG/1.1/DTD/svg11.dtd">
<svg width="1219pt" height="1219pt" viewBox="0 0 1219 1219" version="1.1" xmlns="http://www.w3.org/2000/svg">
<g id="#dadbdbff">
<path fill="#dadbdb" opacity="1.00" d=" M 379.30 419.49 C 391.18 419.33 403.07 419.43 414.95 419.44 C 416.27 419.41 418.41 419.55 418.47 421.30 C 419.14 434.85 418.12 448.47 419.26 461.99 C 419.30 542.67 419.37 623.35 419.39 704.03 C 419.49 705.64 419.09 707.21 418.60 708.75 C 406.73 708.70 394.85 708.87 382.98 708.46 C 373.48 707.50 363.99 704.49 356.27 698.73 C 345.68 690.69 337.63 679.96 329.14 669.85 C 305.76 641.85 282.95 613.37 259.77 585.21 C 234.39 553.95 209.20 522.54 183.24 491.77 C 180.09 487.47 176.35 483.63 173.47 479.13 C 173.52 483.78 173.41 488.46 174.24 493.05 C 174.57 499.29 174.51 505.55 174.53 511.80 C 174.17 536.53 174.69 561.27 174.50 586.00 C 174.50 614.33 174.49 642.67 174.51 671.00 C 174.45 682.75 173.96 694.52 174.55 706.26 C 175.47 694.39 173.83 682.39 175.88 670.62 C 176.83 682.60 175.65 694.69 176.42 706.70 L 176.45 707.31 C 173.69 707.91 170.93 708.69 168.06 708.61 C 157.29 708.72 146.52 708.65 135.76 708.36 C 135.33 706.26 134.56 704.20 134.62 702.05 C 134.70 643.70 134.67 585.35 134.66 527.00 C 134.56 491.75 134.89 456.49 134.34 421.25 C 147.23 421.12 160.11 421.22 173.00 421.17 C 176.00 421.19 179.03 421.08 182.01 421.55 C 185.78 422.90 188.80 425.65 191.48 428.52 C 202.26 440.50 212.09 453.29 222.27 465.77 C 247.48 496.89 272.69 528.00 297.86 559.15 C 321.24 588.43 345.05 617.38 367.99 647.01 C 372.31 651.98 375.56 657.87 380.44 662.33 C 380.42 659.52 379.59 656.81 379.63 654.01 C 379.55 635.56 379.66 617.10 379.43 598.64 C 379.08 578.95 379.70 559.25 379.42 539.56 C 379.61 499.54 379.69 459.51 379.30 419.49 Z" />
<path fill="#dadbdb" opacity="1.00" d=" M 1020.52 474.43 C 1026.79 474.16 1033.07 474.27 1039.35 474.38 C 1041.16 480.42 1040.04 486.80 1040.33 493.00 C 1040.71 499.03 1039.41 504.97 1039.67 511.00 C 1039.69 537.39 1039.31 563.77 1039.59 590.16 C 1033.68 590.22 1027.03 592.08 1021.92 588.27 C 1019.32 588.17 1017.07 589.69 1014.67 590.44 C 1010.67 592.16 1006.23 591.76 1002.00 591.90 C 996.64 591.78 990.96 592.36 986.03 589.84 C 974.83 585.30 967.82 573.72 966.47 562.04 C 965.97 554.03 966.09 545.99 966.45 537.98 C 967.36 526.64 973.22 514.89 983.95 509.94 C 991.06 506.23 999.19 506.13 1007.02 506.44 C 1011.67 506.22 1015.88 508.65 1020.50 508.84 C 1020.33 497.37 1020.38 485.90 1020.52 474.43 M 987.60 539.95 C 987.32 546.64 987.18 553.37 987.76 560.05 C 989.13 565.13 991.17 571.05 996.54 573.12 C 1003.83 576.15 1011.80 573.62 1019.33 573.09 C 1019.71 557.34 1019.68 541.55 1019.43 525.80 C 1012.36 523.59 1004.51 522.22 997.32 524.49 C 990.80 526.56 988.57 533.91 987.60 539.95 Z" />
<path fill="#dadbdb" opacity="1.00" d=" M 815.91 494.91 C 821.75 488.84 829.87 485.61 837.92 483.73 C 846.92 482.87 855.99 482.98 865.02 483.42 C 868.39 483.46 871.56 484.77 874.75 485.76 C 875.10 492.11 874.42 498.41 873.28 504.64 C 869.81 504.84 866.35 504.50 863.00 503.66 C 858.02 503.10 852.99 503.30 848.00 503.34 C 839.92 503.38 832.16 508.20 828.39 515.33 C 823.89 523.78 824.19 533.68 824.41 542.99 C 824.59 551.53 827.01 560.56 833.41 566.59 C 839.14 572.64 848.09 573.82 856.01 573.29 C 861.39 572.61 866.83 571.88 872.27 572.25 C 873.27 578.05 874.18 583.93 873.64 589.83 C 868.78 590.89 864.03 592.73 858.99 592.62 C 850.02 592.67 840.78 593.54 832.13 590.60 C 821.84 587.73 813.26 580.17 808.11 570.94 C 804.90 565.07 802.93 558.60 801.67 552.06 C 801.00 543.06 801.05 534.01 801.57 525.02 C 803.59 514.01 807.58 502.75 815.91 494.91 Z" />
<path fill="#dadbdb" opacity="1.00" d=" M 1055.44 522.42 C 1060.69 513.82 1069.80 507.39 1079.96 506.50 C 1087.32 506.37 1095.12 505.66 1101.89 509.20 C 1110.10 512.83 1115.37 520.89 1117.64 529.33 C 1120.10 537.14 1119.76 545.41 1119.70 553.49 C 1116.29 554.86 1112.57 554.38 1108.99 554.46 C 1096.11 554.54 1083.22 554.53 1070.34 554.46 C 1069.95 559.54 1070.16 565.18 1073.94 569.06 C 1079.95 576.26 1090.42 576.01 1098.88 574.76 C 1104.42 574.44 1109.63 571.69 1115.25 572.37 C 1115.35 577.60 1115.71 582.84 1115.60 588.08 C 1111.06 589.16 1106.65 590.80 1102.03 591.43 C 1096.36 591.80 1090.68 591.82 1085.02 591.71 C 1075.92 591.88 1066.55 588.43 1060.32 581.68 C 1052.37 574.09 1048.88 562.79 1049.34 551.99 C 1048.85 541.84 1050.01 531.24 1055.44 522.42 M 1077.91 523.98 C 1072.34 527.90 1069.43 534.85 1070.20 541.58 C 1080.36 541.69 1090.54 541.68 1100.70 541.53 C 1100.77 537.89 1100.48 534.22 1098.95 530.88 C 1097.25 526.37 1093.36 521.55 1088.04 522.21 C 1084.64 522.35 1080.71 521.59 1077.91 523.98 Z" />
<path fill="#dadbdb" opacity="1.00" d=" M 905.53 508.71 C 912.06 506.36 919.17 507.27 925.98 507.20 C 932.36 506.96 938.23 510.08 943.27 513.71 C 951.10 519.68 955.37 529.40 956.59 538.96 C 956.61 548.94 957.82 559.26 954.57 568.89 C 951.66 578.50 944.81 587.46 935.04 590.72 C 929.01 593.23 922.38 592.66 916.02 592.72 C 903.73 592.98 892.03 585.26 886.61 574.36 C 880.99 564.24 881.01 552.28 881.58 541.05 C 882.76 531.59 886.52 522.18 893.57 515.57 C 897.04 512.50 901.20 510.29 905.53 508.71 M 913.54 523.69 C 909.19 525.67 905.88 529.62 904.14 534.02 C 901.49 540.70 902.47 548.02 902.42 555.03 C 902.88 563.15 906.13 572.48 914.17 575.95 C 920.30 577.82 927.92 576.17 931.55 570.49 C 937.22 562.11 935.56 551.55 935.74 542.01 C 936.01 536.46 934.20 530.73 930.18 526.80 C 926.03 522.38 918.98 521.16 913.54 523.69 Z" />
<path fill="#dadbdb" opacity="1.00" d=" M 467.41 646.48 C 474.32 646.48 481.24 646.37 488.16 646.47 C 489.28 647.53 489.77 648.87 489.63 650.48 C 486.89 650.58 484.15 650.59 481.41 650.55 C 479.76 659.24 481.20 668.21 480.58 677.01 C 478.80 677.50 477.06 677.13 475.42 676.41 C 475.29 667.84 475.64 659.27 475.34 650.71 C 472.70 650.63 470.06 650.58 467.42 650.54 C 467.42 649.53 467.41 647.50 467.41 646.48 Z" />
<path fill="#dadbdb" opacity="1.00" d=" M 503.46 646.48 C 508.81 646.43 514.18 646.46 519.54 646.44 C 519.64 647.80 519.73 649.17 519.83 650.55 C 516.07 650.53 512.30 650.51 508.54 650.54 C 508.44 653.20 508.41 655.86 508.37 658.53 C 511.76 658.60 515.16 658.46 518.54 658.89 C 518.58 660.35 518.62 661.81 518.67 663.29 C 515.26 663.41 511.86 663.38 508.46 663.44 C 508.42 666.47 508.42 669.51 508.46 672.55 C 511.99 672.60 515.52 672.61 519.05 672.61 C 519.44 673.20 520.21 674.40 520.59 675.00 C 520.21 675.60 519.47 676.80 519.09 677.41 C 513.84 677.07 508.38 678.18 503.30 676.56 C 503.35 666.53 503.13 656.50 503.46 646.48 Z" />
<path fill="#dadbdb" opacity="1.00" d=" M 533.41 661.98 C 532.79 654.94 537.81 647.68 544.90 646.51 C 548.06 646.26 551.23 646.40 554.39 646.49 C 554.51 647.82 554.63 649.16 554.76 650.51 C 551.51 650.41 548.21 650.05 544.98 650.66 C 542.03 652.35 538.95 655.20 539.36 658.92 C 539.35 663.05 538.62 667.89 541.99 671.01 C 545.21 674.45 550.27 673.49 554.30 672.36 C 555.87 674.27 555.64 676.64 553.03 677.35 C 548.70 677.37 543.89 678.36 540.02 675.88 C 534.97 673.37 533.06 667.28 533.41 661.98 Z" />
<path fill="#dadbdb" opacity="1.00" d=" M 570.70 646.69 C 572.25 646.54 573.81 646.44 575.39 646.39 C 575.75 650.59 575.71 654.83 576.50 659.00 C 580.34 659.68 584.27 659.35 588.06 658.48 C 588.48 654.50 588.22 650.51 588.58 646.54 C 589.53 646.51 591.45 646.46 592.41 646.43 C 592.93 647.89 593.53 649.37 593.44 650.97 C 593.47 659.40 593.39 667.84 593.49 676.27 C 591.83 677.33 590.08 677.44 588.33 676.55 C 588.36 672.23 588.40 667.91 588.30 663.60 C 584.29 663.50 580.29 663.52 576.29 663.49 C 574.51 668.14 577.53 673.09 575.18 677.62 C 573.55 677.34 571.94 676.98 570.36 676.56 C 570.59 666.61 569.95 656.62 570.70 646.69 Z" />
<path fill="#dadbdb" opacity="1.00" d=" M 609.57 647.88 C 610.55 645.68 613.03 646.50 614.89 646.73 C 620.10 653.14 623.51 660.81 628.28 667.53 C 631.10 660.66 627.22 653.33 629.60 646.47 C 630.61 646.44 632.61 646.36 633.62 646.33 C 634.83 648.70 634.39 651.43 634.47 654.00 C 634.32 661.35 634.65 668.71 634.34 676.06 C 632.82 678.07 629.57 677.80 627.99 676.01 C 622.89 669.23 619.72 661.22 614.54 654.50 C 614.20 661.73 614.40 668.99 614.39 676.23 C 612.69 676.73 610.66 678.44 609.53 676.16 C 609.36 666.73 609.41 657.30 609.57 647.88 Z" />
<path fill="#dadbdb" opacity="1.00" d=" M 656.59 647.74 C 662.46 645.16 670.67 645.70 674.90 651.07 C 678.55 655.87 677.97 662.28 677.29 667.91 C 674.25 677.94 659.72 680.96 652.86 673.16 C 648.90 669.52 649.03 663.89 649.29 658.95 C 649.20 654.18 652.49 649.90 656.59 647.74 M 658.54 651.56 C 655.01 654.19 654.06 658.89 654.48 663.05 C 654.04 668.64 659.20 674.47 665.03 673.42 C 668.27 672.68 670.66 669.86 671.94 666.92 C 673.49 661.22 672.88 653.54 667.05 650.46 C 664.24 650.30 660.87 649.61 658.54 651.56 Z" />
<path fill="#dadbdb" opacity="1.00" d=" M 692.47 655.01 C 692.52 652.10 692.17 649.08 693.46 646.37 C 694.46 646.41 696.47 646.47 697.47 646.50 C 698.30 655.15 696.63 663.97 698.63 672.50 C 701.74 672.56 704.87 672.45 707.99 672.71 C 710.63 673.52 709.74 677.67 707.03 677.38 C 702.15 677.18 697.04 678.20 692.36 676.50 C 692.44 669.34 692.45 662.17 692.47 655.01 Z" />
<path fill="#dadbdb" opacity="1.00" d=" M 729.42 647.38 C 735.12 645.44 743.15 645.48 746.86 651.12 C 750.63 655.93 749.77 662.38 749.30 668.06 C 746.13 678.36 731.04 680.94 724.37 672.66 C 720.70 669.06 721.11 663.67 721.26 658.96 C 721.05 653.81 725.17 649.65 729.42 647.38 M 730.61 651.60 C 725.90 655.09 725.62 661.63 727.05 666.82 C 728.40 670.87 732.63 674.24 737.05 673.35 C 740.63 672.28 744.10 669.05 743.76 665.06 C 743.95 659.90 744.63 653.20 739.07 650.53 C 736.28 650.33 732.89 649.59 730.61 651.60 Z" />
<path fill="#dadbdb" opacity="1.00" d=" M 768.57 674.33 C 759.68 666.91 762.20 649.65 773.94 646.57 C 778.43 646.41 783.23 645.64 787.50 647.45 C 787.55 648.53 787.62 649.62 787.70 650.72 C 782.48 650.77 776.05 648.59 771.98 652.98 C 768.41 656.36 769.13 661.64 769.48 666.07 C 770.74 669.14 773.07 673.05 776.90 672.75 C 778.78 672.82 780.66 672.70 782.55 672.63 C 782.58 669.55 782.56 666.49 782.66 663.42 C 780.64 662.50 778.43 662.50 776.28 662.47 C 776.29 661.39 776.31 660.31 776.33 659.25 C 779.97 658.34 783.76 658.63 787.49 658.55 C 787.81 664.55 787.75 670.57 787.61 676.59 C 781.32 676.60 773.99 678.39 768.57 674.33 Z" />
<path fill="#dadbdb" opacity="1.00" d=" M 802.37 647.81 C 803.32 645.92 805.34 646.53 807.04 646.56 C 809.08 650.38 811.09 654.21 812.96 658.12 C 816.08 654.86 817.21 650.26 819.83 646.63 C 820.80 646.57 822.74 646.44 823.71 646.38 C 823.42 652.87 817.90 657.75 816.52 663.95 C 816.29 668.14 816.45 672.35 816.37 676.55 C 814.50 676.63 812.63 676.66 810.78 676.68 C 810.35 672.28 811.03 667.82 810.32 663.47 C 807.72 658.23 804.80 653.14 802.37 647.81 Z" />
<path fill="#dadbdb" opacity="1.00" d=" M 857.57 655.98 C 859.24 651.77 862.82 648.38 866.99 646.67 C 870.74 646.11 874.55 646.38 878.33 646.53 C 878.44 647.85 878.55 649.19 878.67 650.52 C 873.92 650.47 867.88 649.07 864.67 653.60 C 861.10 659.22 861.34 668.54 867.53 672.28 C 870.97 674.27 874.79 672.78 878.42 672.33 C 878.50 673.39 878.68 675.51 878.76 676.57 C 872.77 678.39 865.19 678.24 860.53 673.48 C 856.28 668.70 856.97 661.87 857.57 655.98 Z" />
<path fill="#dadbdb" opacity="1.00" d=" M 900.43 647.38 C 902.69 645.97 905.49 646.50 908.03 646.38 C 914.83 645.77 921.13 652.22 920.75 658.97 C 920.69 663.00 921.44 667.49 919.01 671.02 C 916.45 675.00 911.79 677.79 906.99 677.50 C 899.53 678.12 892.28 671.57 892.37 664.06 C 892.43 660.59 891.81 656.77 893.82 653.70 C 895.43 651.09 897.72 648.84 900.43 647.38 M 903.48 650.63 C 896.54 654.09 895.92 664.13 900.08 669.99 C 902.12 672.58 905.74 674.35 908.99 673.00 C 913.09 671.70 915.86 667.30 915.53 663.05 C 915.47 660.22 915.90 657.16 914.29 654.65 C 912.45 650.82 907.39 648.00 903.48 650.63 Z" />
<path fill="#dadbdb" opacity="1.00" d=" M 937.59 646.47 C 939.49 646.46 941.41 646.46 943.34 646.45 C 947.53 653.57 949.24 661.80 953.02 669.12 C 956.48 661.78 957.94 653.66 961.76 646.47 C 963.94 646.47 966.13 646.51 968.33 646.62 C 968.88 652.65 968.28 658.75 969.29 664.76 C 969.34 668.92 970.06 673.21 969.22 677.32 C 967.52 677.74 965.98 677.00 964.49 676.34 C 964.51 670.24 964.42 664.14 964.32 658.04 C 964.40 656.88 963.75 655.92 963.23 654.98 C 960.68 662.10 957.85 669.12 955.42 676.29 C 954.77 676.64 953.48 677.35 952.84 677.70 C 951.77 676.84 950.51 676.11 949.96 674.81 C 947.02 668.22 945.27 661.12 941.80 654.77 C 941.63 662.09 941.17 669.36 940.50 676.65 C 939.45 676.68 937.34 676.73 936.29 676.76 C 936.41 666.67 935.78 656.45 937.59 646.47 Z" />
<path fill="#dadbdb" opacity="1.00" d=" M 984.58 661.00 C 984.76 656.15 984.03 651.15 985.65 646.47 C 991.89 647.23 999.59 644.36 1004.54 649.42 C 1007.62 652.00 1006.71 656.48 1006.31 659.99 C 1003.44 665.93 996.28 665.98 990.60 665.77 C 990.36 669.20 990.55 672.64 990.34 676.08 C 989.13 678.05 985.85 677.94 984.71 675.97 C 984.30 670.99 984.65 665.99 984.58 661.00 M 990.45 650.28 C 990.38 654.03 990.44 657.78 990.36 661.53 C 992.77 662.33 995.45 662.74 997.89 661.75 C 1002.02 660.77 1002.53 654.76 1000.03 651.92 C 997.53 649.38 993.60 650.59 990.45 650.28 Z" />
<path fill="#dadbdb" opacity="1.00" d=" M 1020.34 662.51 C 1022.10 657.01 1023.79 651.44 1026.78 646.45 C 1028.84 646.46 1030.92 646.50 1033.00 646.59 C 1036.15 653.94 1038.10 661.71 1040.97 669.17 C 1041.80 671.47 1042.75 673.78 1042.77 676.28 C 1041.68 678.19 1039.11 677.49 1037.80 676.29 C 1036.39 673.90 1035.87 671.12 1035.11 668.49 C 1031.31 668.34 1027.50 668.44 1023.70 668.42 C 1022.50 670.98 1021.46 673.64 1021.12 676.47 C 1019.47 676.65 1017.79 676.77 1016.15 676.88 C 1016.00 671.72 1018.88 667.28 1020.34 662.51 M 1025.16 664.48 C 1027.96 664.48 1030.77 664.49 1033.58 664.43 C 1032.38 660.23 1031.10 656.05 1029.98 651.83 C 1027.13 655.42 1025.82 660.01 1025.16 664.48 Z" />
<path fill="#dadbdb" opacity="1.00" d=" M 1056.59 656.00 C 1056.69 652.76 1056.15 649.39 1057.46 646.33 C 1059.03 646.40 1060.61 646.47 1062.20 646.53 C 1067.26 653.04 1071.54 660.17 1075.25 667.53 C 1076.86 665.32 1076.31 662.54 1076.41 660.00 C 1076.39 655.53 1076.29 651.05 1076.62 646.59 C 1077.58 646.54 1079.52 646.42 1080.49 646.37 C 1081.06 647.83 1081.63 649.34 1081.51 650.97 C 1081.58 659.49 1081.43 668.00 1081.57 676.51 C 1080.04 676.90 1078.51 677.28 1076.99 677.59 C 1072.34 671.79 1068.89 665.18 1065.10 658.84 C 1064.36 657.42 1063.07 656.45 1061.80 655.60 C 1061.50 662.82 1061.89 670.05 1061.56 677.28 C 1059.80 677.27 1057.74 677.88 1056.61 676.11 C 1056.45 669.41 1056.65 662.70 1056.59 656.00 Z" />
<path fill="#dadbdb" opacity="1.00" d=" M 1095.11 646.45 C 1096.73 646.47 1098.36 646.52 1100.00 646.60 C 1101.76 650.68 1103.82 654.63 1106.01 658.50 C 1107.94 654.50 1109.78 650.45 1111.88 646.52 C 1113.55 646.48 1115.23 646.47 1116.93 646.48 C 1115.50 651.69 1112.39 656.17 1110.07 660.99 C 1107.15 665.76 1109.29 671.56 1108.50 676.80 C 1107.24 677.93 1105.29 677.21 1103.79 677.55 C 1101.16 672.72 1104.73 667.33 1102.26 662.55 C 1100.01 657.12 1096.17 652.30 1095.11 646.45 Z" />
</g>
<g id="#1b4364ff">
<path fill="#1b4364" opacity="1.00" d=" M 246.07 420.67 C 257.05 420.42 268.03 420.70 279.02 420.62 C 287.18 420.47 295.56 422.25 302.49 426.69 C 309.07 430.96 313.38 437.70 318.00 443.85 C 334.85 467.83 351.32 492.09 367.18 516.74 C 370.70 522.34 375.11 527.55 377.00 534.00 C 377.60 535.93 378.51 537.75 379.42 539.56 C 379.70 559.25 379.08 578.95 379.43 598.64 C 377.60 597.15 375.65 595.76 374.23 593.86 C 351.45 562.10 327.72 531.05 304.43 499.67 C 288.17 477.95 271.73 456.37 255.44 434.67 C 252.27 430.05 247.78 426.16 246.07 420.67 Z" />
<path fill="#1b4364" opacity="1.00" d=" M 470.62 480.66 C 476.76 480.56 482.91 480.63 489.05 480.65 C 491.29 480.68 493.84 480.81 495.54 482.48 C 497.39 484.36 498.49 486.82 499.75 489.11 C 509.70 509.05 520.29 528.65 530.36 548.52 C 532.03 551.73 533.15 555.47 536.26 557.65 C 536.93 532.01 535.98 506.34 536.74 480.70 C 542.96 480.60 549.23 480.23 555.44 480.85 C 557.77 481.92 557.24 484.84 557.37 486.93 C 557.28 521.03 557.26 555.13 557.17 589.23 C 551.28 591.09 545.05 590.21 538.98 590.43 C 536.31 590.30 533.18 590.82 531.00 588.95 C 528.42 585.89 527.07 582.04 525.13 578.59 C 517.08 564.29 509.00 550.00 501.16 535.58 C 498.23 530.45 495.83 524.93 491.77 520.55 C 491.25 522.32 490.65 524.11 490.65 525.99 C 490.42 547.27 490.77 568.56 490.59 589.84 C 484.03 590.96 477.34 590.38 470.73 590.25 C 470.05 567.18 470.65 544.08 470.46 521.00 C 470.55 507.56 470.17 494.10 470.62 480.66 Z" />
<path fill="#1b4364" opacity="1.00" d=" M 594.48 506.89 C 599.61 506.05 604.85 506.34 610.04 506.36 C 619.07 506.19 627.31 511.31 633.45 517.56 C 643.00 528.38 644.48 543.73 643.19 557.53 C 642.08 566.61 639.56 576.21 632.82 582.79 C 625.41 589.67 614.90 592.20 605.00 591.57 C 595.01 592.13 584.36 589.06 577.47 581.52 C 570.66 574.37 568.09 564.36 566.97 554.82 C 565.73 544.08 567.68 532.96 572.50 523.29 C 577.05 515.02 585.24 508.87 594.48 506.89 M 599.16 522.77 C 594.34 525.18 591.11 530.09 589.88 535.25 C 588.75 542.76 588.06 550.43 589.31 557.98 C 589.42 565.45 593.48 573.20 600.60 576.14 C 606.37 577.42 613.73 576.85 617.28 571.43 C 622.82 562.64 621.63 551.84 621.58 541.95 C 621.49 534.15 617.86 525.40 610.05 522.58 C 606.46 522.15 602.68 521.84 599.16 522.77 Z" />
<path fill="#1b4364" opacity="1.00" d=" M 732.20 507.85 C 737.59 505.93 743.40 506.75 748.98 505.98 C 754.57 505.20 760.16 506.42 765.76 506.63 C 775.33 507.86 785.24 513.97 787.82 523.75 C 789.95 530.30 789.44 537.23 789.50 544.00 C 789.49 559.08 789.46 574.15 789.58 589.23 C 783.68 590.00 777.64 590.04 771.83 588.68 C 768.06 588.75 764.60 590.80 760.87 591.31 C 752.46 592.13 743.57 592.20 735.78 588.46 C 727.06 584.34 721.39 574.64 722.24 565.00 C 721.43 555.60 727.54 546.25 736.45 543.17 C 746.87 538.65 758.40 540.83 769.39 540.43 C 769.43 535.77 770.03 530.25 766.18 526.79 C 761.49 521.84 754.16 522.45 747.95 522.56 C 741.66 522.52 735.81 525.34 729.58 525.73 C 729.37 520.82 729.26 515.90 729.55 510.99 C 729.47 509.43 730.77 508.20 732.20 507.85 M 745.89 555.92 C 742.49 558.49 741.27 562.92 741.65 567.03 C 741.40 572.05 745.99 576.57 750.95 576.59 C 757.13 576.80 763.59 577.16 769.39 574.60 C 769.38 568.09 769.47 561.58 769.27 555.08 C 769.38 553.54 768.34 551.88 766.71 551.79 C 759.66 551.31 751.71 551.28 745.89 555.92 Z" />
<path fill="#1b4364" opacity="1.00" d=" M 645.19 508.15 C 650.09 507.36 655.10 507.39 660.05 507.73 C 661.94 508.03 664.45 508.46 664.94 510.70 C 670.83 529.19 675.78 547.99 681.80 566.44 C 682.98 569.63 684.58 565.94 684.91 564.30 C 688.22 552.37 691.65 540.47 695.15 528.60 C 697.00 522.43 698.14 516.02 700.83 510.14 C 701.32 508.80 702.50 507.58 704.01 507.58 C 709.24 507.13 714.50 507.40 719.74 507.64 C 719.70 509.07 719.54 510.48 719.26 511.88 C 712.63 531.83 706.47 551.94 700.53 572.10 C 700.21 572.10 699.90 572.11 699.60 572.13 C 698.54 576.88 697.09 581.53 695.53 586.14 C 694.93 587.66 694.13 589.84 692.08 589.60 C 685.31 589.93 678.52 589.77 671.75 589.60 C 670.76 587.62 669.80 585.64 669.12 583.55 C 662.90 563.12 655.52 543.07 649.02 522.74 C 647.55 517.93 645.17 513.28 645.19 508.15 Z" />
<path fill="#1b4364" opacity="1.00" d=" M 174.53 511.80 C 176.63 517.62 175.10 523.97 175.73 530.01 C 176.68 537.98 176.26 546.01 176.37 554.02 C 176.64 597.34 176.34 640.68 176.81 684.00 C 176.66 691.56 177.25 699.16 176.42 706.70 C 175.65 694.69 176.83 682.60 175.88 670.62 C 173.83 682.39 175.47 694.39 174.55 706.26 C 173.96 694.52 174.45 682.75 174.51 671.00 C 174.49 642.67 174.50 614.33 174.50 586.00 C 174.69 561.27 174.17 536.53 174.53 511.80 Z" />
<path fill="#1b4364" opacity="1.00" d=" M 200.62 551.88 C 201.66 552.61 202.76 553.27 203.64 554.21 C 227.39 584.73 252.68 614.04 276.93 644.17 C 291.30 661.76 305.62 679.39 320.07 696.91 C 323.09 700.63 327.17 703.65 328.93 708.27 C 286.28 708.39 243.62 708.20 200.97 708.35 C 198.88 708.66 196.26 707.35 196.59 704.93 C 196.65 697.14 195.87 689.24 197.28 681.54 C 211.18 681.24 225.10 681.53 239.00 681.44 C 243.15 681.29 247.50 682.06 251.42 680.33 C 244.90 671.39 237.38 663.23 230.55 654.52 C 222.17 643.61 213.42 633.00 204.90 622.20 C 202.33 619.05 200.44 615.19 200.58 611.04 C 200.45 591.32 200.35 571.59 200.62 551.88 Z" />
</g>
</svg>
